<svg width="182" height="43" viewBox="0 0 182 43" fill="none" xmlns="http://www.w3.org/2000/svg">
<path d="M3.44035 6.6402L0.520352 6.0802V3.2802H6.76035C7.64035 3.2802 8.82702 3.22686 10.3204 3.1202C10.667 3.09353 11.187 3.06686 11.8804 3.0402C12.6004 3.01353 13.2404 3.0002 13.8004 3.0002C18.6537 3.0002 22.307 4.21353 24.7604 6.6402C27.2137 9.06686 28.4404 12.5469 28.4404 17.0802C28.4404 20.2002 27.8404 22.9869 26.6404 25.4402C25.4404 27.8935 23.7204 29.8269 21.4804 31.2402C19.2404 32.6269 16.6004 33.3202 13.5604 33.3202C12.7337 33.3202 11.4937 33.2669 9.84035 33.1602C8.29369 33.0535 7.29369 33.0002 6.84035 33.0002H0.360352V30.3602L3.44035 29.9202V6.6402ZM10.2004 30.0402C11.1337 30.3335 12.2004 30.4535 13.4004 30.4002C15.8004 30.3735 17.6537 29.3602 18.9604 27.3602C20.2937 25.3335 20.9604 22.2402 20.9604 18.0802C20.9604 14.2402 20.307 11.2402 19.0004 9.0802C17.7204 6.89353 15.6937 5.8002 12.9204 5.8002C12.2804 5.8002 11.707 5.8402 11.2004 5.9202C10.6937 6.0002 10.3604 6.05353 10.2004 6.0802V30.0402Z" fill="#14162E"/>
<path d="M31.3082 22.0002C31.3082 19.4402 31.8148 17.2802 32.8282 15.5202C33.8415 13.7335 35.2015 12.4002 36.9082 11.5202C38.6415 10.6402 40.5348 10.2002 42.5882 10.2002C45.9482 10.2002 48.5748 11.2135 50.4682 13.2402C52.3882 15.2402 53.3482 18.0402 53.3482 21.6402C53.3482 24.2802 52.8415 26.4802 51.8282 28.2402C50.8148 30.0002 49.4548 31.3069 47.7482 32.1602C46.0415 33.0135 44.1348 33.4402 42.0282 33.4402C38.6948 33.4402 36.0682 32.4402 34.1482 30.4402C32.2548 28.4135 31.3082 25.6002 31.3082 22.0002ZM42.4282 30.6402C43.7082 30.6402 44.6548 29.9602 45.2682 28.6002C45.9082 27.2135 46.2282 25.0535 46.2282 22.1202C46.2282 19.0002 45.9215 16.7069 45.3082 15.2402C44.7215 13.7469 43.7215 13.0002 42.3082 13.0002C39.6948 13.0002 38.3882 15.8402 38.3882 21.5202C38.3882 24.6135 38.7082 26.9069 39.3482 28.4002C39.9882 29.8935 41.0148 30.6402 42.4282 30.6402Z" fill="#14162E"/>
<path d="M59.0922 14.9602L56.7322 14.2402V11.1202L64.0122 10.2402H64.1322L65.1722 11.0802V12.5602L65.1322 13.4802C66.0656 12.6002 67.2522 11.8535 68.6922 11.2402C70.1322 10.6269 71.6389 10.3202 73.2122 10.3202C74.8122 10.3202 76.0656 10.6135 76.9722 11.2002C77.9056 11.7602 78.5722 12.6669 78.9722 13.9202C79.3989 15.1735 79.6122 16.8802 79.6122 19.0402V30.0002L81.8522 30.3202V33.0002H70.9722V30.3602L72.9322 30.0002V19.0802C72.9322 17.8002 72.8389 16.8135 72.6522 16.1202C72.4922 15.4002 72.1989 14.8802 71.7722 14.5602C71.3456 14.2402 70.7322 14.0802 69.9322 14.0802C68.7056 14.0802 67.3189 14.6535 65.7722 15.8002V30.0002L67.9722 30.3602V33.0002H56.8922V30.3602L59.0922 30.0002V14.9602Z" fill="#14162E"/>
<path d="M84.6285 22.0002C84.6285 19.4402 85.1351 17.2802 86.1485 15.5202C87.1618 13.7335 88.5218 12.4002 90.2285 11.5202C91.9618 10.6402 93.8551 10.2002 95.9085 10.2002C99.2685 10.2002 101.895 11.2135 103.788 13.2402C105.708 15.2402 106.668 18.0402 106.668 21.6402C106.668 24.2802 106.162 26.4802 105.148 28.2402C104.135 30.0002 102.775 31.3069 101.068 32.1602C99.3618 33.0135 97.4551 33.4402 95.3485 33.4402C92.0151 33.4402 89.3885 32.4402 87.4685 30.4402C85.5751 28.4135 84.6285 25.6002 84.6285 22.0002ZM95.7485 30.6402C97.0285 30.6402 97.9751 29.9602 98.5885 28.6002C99.2285 27.2135 99.5485 25.0535 99.5485 22.1202C99.5485 19.0002 99.2418 16.7069 98.6285 15.2402C98.0418 13.7469 97.0418 13.0002 95.6285 13.0002C93.0151 13.0002 91.7085 15.8402 91.7085 21.5202C91.7085 24.6135 92.0285 26.9069 92.6685 28.4002C93.3085 29.8935 94.3351 30.6402 95.7485 30.6402Z" fill="#14162E"/>
<path d="M110.213 30.3602L112.653 30.0002V14.9602L110.293 14.2402V11.1202L116.933 10.2402H117.053L118.173 11.0802V12.0402L118.053 15.3602H118.173C118.359 14.7469 118.786 14.0402 119.453 13.2402C120.119 12.4135 120.959 11.7069 121.973 11.1202C123.013 10.5069 124.133 10.2002 125.333 10.2002C126.026 10.2002 126.559 10.2935 126.933 10.4802V17.4402C126.506 17.1202 126.039 16.8669 125.533 16.6802C125.053 16.4935 124.426 16.4002 123.653 16.4002C122.693 16.4002 121.826 16.5335 121.053 16.8002C120.279 17.0402 119.666 17.3202 119.213 17.6402V30.0002L123.613 30.4002V33.0002H110.213V30.3602Z" fill="#14162E"/>
<path d="M134.271 7.3202C133.231 7.3202 132.391 7.01353 131.751 6.4002C131.111 5.78686 130.791 5.0002 130.791 4.0402C130.791 2.9202 131.138 2.0002 131.831 1.2802C132.551 0.560195 133.511 0.200195 134.711 0.200195C135.911 0.200195 136.831 0.506862 137.471 1.1202C138.111 1.73353 138.431 2.5202 138.431 3.4802C138.431 4.62686 138.071 5.5602 137.351 6.2802C136.631 6.97353 135.618 7.3202 134.311 7.3202H134.271ZM131.831 14.9602L129.151 14.2002V11.2002L137.151 10.2402H137.231L138.471 11.0802V30.0002L140.871 30.3602V33.0002H129.351V30.3602L131.831 30.0002V14.9602Z" fill="#14162E"/>
<path d="M150.409 33.3602C148.649 33.3602 147.342 32.9602 146.489 32.1602C145.662 31.3335 145.249 30.0669 145.249 28.3602V14.1202H142.809V11.8002L143.609 11.4802C144.249 11.2669 144.809 11.0402 145.289 10.8002C145.822 10.2935 146.249 9.62686 146.569 8.8002C146.969 7.8402 147.409 6.49353 147.889 4.7602H151.609L151.849 10.7602H157.569V14.1202H151.929V24.7202C151.929 26.1869 151.969 27.2135 152.049 27.8002C152.129 28.3869 152.276 28.7735 152.489 28.9602C152.729 29.1202 153.156 29.2002 153.769 29.2002C155.022 29.2002 156.209 28.9869 157.329 28.5602L158.169 31.0802C157.422 31.6935 156.316 32.2269 154.849 32.6802C153.382 33.1335 151.902 33.3602 150.409 33.3602Z" fill="#14162E"/>
<path d="M163.897 42.9602C163.337 42.9602 162.751 42.9202 162.137 42.8402C161.551 42.7602 161.124 42.6535 160.857 42.5202V37.7202C161.044 37.8535 161.444 37.9735 162.057 38.0802C162.671 38.2135 163.231 38.2802 163.737 38.2802C165.097 38.2802 166.177 37.8535 166.977 37.0002C167.777 36.1469 168.511 34.8135 169.177 33.0002H166.857L159.377 13.8002L157.617 13.3202V10.7602H169.417V13.3202L166.617 13.8002L169.937 24.4402L171.137 28.4802L172.097 24.4402L175.177 13.7602L172.777 13.3202V10.7602H181.817V13.3202L179.897 13.7602C178.777 17.2002 177.404 21.2402 175.777 25.8802C174.177 30.5202 173.284 33.0535 173.097 33.4802C172.297 35.6935 171.484 37.4669 170.657 38.8002C169.857 40.1602 168.911 41.1869 167.817 41.8802C166.724 42.6002 165.417 42.9602 163.897 42.9602Z" fill="#14162E"/>
<mask id="mask0_1267_241" style="mask-type:alpha" maskUnits="userSpaceOnUse" x="0" y="0" width="182" height="43">
<path d="M3.44035 6.6402L0.520352 6.0802V3.2802H6.76035C7.64035 3.2802 8.82702 3.22686 10.3204 3.1202C10.667 3.09353 11.187 3.06686 11.8804 3.0402C12.6004 3.01353 13.2404 3.0002 13.8004 3.0002C18.6537 3.0002 22.307 4.21353 24.7604 6.6402C27.2137 9.06686 28.4404 12.5469 28.4404 17.0802C28.4404 20.2002 27.8404 22.9869 26.6404 25.4402C25.4404 27.8935 23.7204 29.8269 21.4804 31.2402C19.2404 32.6269 16.6004 33.3202 13.5604 33.3202C12.7337 33.3202 11.4937 33.2669 9.84035 33.1602C8.29369 33.0535 7.29369 33.0002 6.84035 33.0002H0.360352V30.3602L3.44035 29.9202V6.6402ZM10.2004 30.0402C11.1337 30.3335 12.2004 30.4535 13.4004 30.4002C15.8004 30.3735 17.6537 29.3602 18.9604 27.3602C20.2937 25.3335 20.9604 22.2402 20.9604 18.0802C20.9604 14.2402 20.307 11.2402 19.0004 9.0802C17.7204 6.89353 15.6937 5.8002 12.9204 5.8002C12.2804 5.8002 11.707 5.8402 11.2004 5.9202C10.6937 6.0002 10.3604 6.05353 10.2004 6.0802V30.0402Z" fill="white"/>
<path d="M31.3082 22.0002C31.3082 19.4402 31.8148 17.2802 32.8282 15.5202C33.8415 13.7335 35.2015 12.4002 36.9082 11.5202C38.6415 10.6402 40.5348 10.2002 42.5882 10.2002C45.9482 10.2002 48.5748 11.2135 50.4682 13.2402C52.3882 15.2402 53.3482 18.0402 53.3482 21.6402C53.3482 24.2802 52.8415 26.4802 51.8282 28.2402C50.8148 30.0002 49.4548 31.3069 47.7482 32.1602C46.0415 33.0135 44.1348 33.4402 42.0282 33.4402C38.6948 33.4402 36.0682 32.4402 34.1482 30.4402C32.2548 28.4135 31.3082 25.6002 31.3082 22.0002ZM42.4282 30.6402C43.7082 30.6402 44.6548 29.9602 45.2682 28.6002C45.9082 27.2135 46.2282 25.0535 46.2282 22.1202C46.2282 19.0002 45.9215 16.7069 45.3082 15.2402C44.7215 13.7469 43.7215 13.0002 42.3082 13.0002C39.6948 13.0002 38.3882 15.8402 38.3882 21.5202C38.3882 24.6135 38.7082 26.9069 39.3482 28.4002C39.9882 29.8935 41.0148 30.6402 42.4282 30.6402Z" fill="white"/>
<path d="M59.0922 14.9602L56.7322 14.2402V11.1202L64.0122 10.2402H64.1322L65.1722 11.0802V12.5602L65.1322 13.4802C66.0656 12.6002 67.2522 11.8535 68.6922 11.2402C70.1322 10.6269 71.6389 10.3202 73.2122 10.3202C74.8122 10.3202 76.0656 10.6135 76.9722 11.2002C77.9056 11.7602 78.5722 12.6669 78.9722 13.9202C79.3989 15.1735 79.6122 16.8802 79.6122 19.0402V30.0002L81.8522 30.3202V33.0002H70.9722V30.3602L72.9322 30.0002V19.0802C72.9322 17.8002 72.8389 16.8135 72.6522 16.1202C72.4922 15.4002 72.1989 14.8802 71.7722 14.5602C71.3456 14.2402 70.7322 14.0802 69.9322 14.0802C68.7056 14.0802 67.3189 14.6535 65.7722 15.8002V30.0002L67.9722 30.3602V33.0002H56.8922V30.3602L59.0922 30.0002V14.9602Z" fill="white"/>
<path d="M84.6285 22.0002C84.6285 19.4402 85.1351 17.2802 86.1485 15.5202C87.1618 13.7335 88.5218 12.4002 90.2285 11.5202C91.9618 10.6402 93.8551 10.2002 95.9085 10.2002C99.2685 10.2002 101.895 11.2135 103.788 13.2402C105.708 15.2402 106.668 18.0402 106.668 21.6402C106.668 24.2802 106.162 26.4802 105.148 28.2402C104.135 30.0002 102.775 31.3069 101.068 32.1602C99.3618 33.0135 97.4551 33.4402 95.3485 33.4402C92.0151 33.4402 89.3885 32.4402 87.4685 30.4402C85.5751 28.4135 84.6285 25.6002 84.6285 22.0002ZM95.7485 30.6402C97.0285 30.6402 97.9751 29.9602 98.5885 28.6002C99.2285 27.2135 99.5485 25.0535 99.5485 22.1202C99.5485 19.0002 99.2418 16.7069 98.6285 15.2402C98.0418 13.7469 97.0418 13.0002 95.6285 13.0002C93.0151 13.0002 91.7085 15.8402 91.7085 21.5202C91.7085 24.6135 92.0285 26.9069 92.6685 28.4002C93.3085 29.8935 94.3351 30.6402 95.7485 30.6402Z" fill="white"/>
<path d="M110.213 30.3602L112.653 30.0002V14.9602L110.293 14.2402V11.1202L116.933 10.2402H117.053L118.173 11.0802V12.0402L118.053 15.3602H118.173C118.359 14.7469 118.786 14.0402 119.453 13.2402C120.119 12.4135 120.959 11.7069 121.973 11.1202C123.013 10.5069 124.133 10.2002 125.333 10.2002C126.026 10.2002 126.559 10.2935 126.933 10.4802V17.4402C126.506 17.1202 126.039 16.8669 125.533 16.6802C125.053 16.4935 124.426 16.4002 123.653 16.4002C122.693 16.4002 121.826 16.5335 121.053 16.8002C120.279 17.0402 119.666 17.3202 119.213 17.6402V30.0002L123.613 30.4002V33.0002H110.213V30.3602Z" fill="white"/>
<path d="M134.271 7.3202C133.231 7.3202 132.391 7.01353 131.751 6.4002C131.111 5.78686 130.791 5.0002 130.791 4.0402C130.791 2.9202 131.138 2.0002 131.831 1.2802C132.551 0.560195 133.511 0.200195 134.711 0.200195C135.911 0.200195 136.831 0.506862 137.471 1.1202C138.111 1.73353 138.431 2.5202 138.431 3.4802C138.431 4.62686 138.071 5.5602 137.351 6.2802C136.631 6.97353 135.618 7.3202 134.311 7.3202H134.271ZM131.831 14.9602L129.151 14.2002V11.2002L137.151 10.2402H137.231L138.471 11.0802V30.0002L140.871 30.3602V33.0002H129.351V30.3602L131.831 30.0002V14.9602Z" fill="white"/>
<path d="M150.409 33.3602C148.649 33.3602 147.342 32.9602 146.489 32.1602C145.662 31.3335 145.249 30.0669 145.249 28.3602V14.1202H142.809V11.8002L143.609 11.4802C144.249 11.2669 144.809 11.0402 145.289 10.8002C145.822 10.2935 146.249 9.62686 146.569 8.8002C146.969 7.8402 147.409 6.49353 147.889 4.7602H151.609L151.849 10.7602H157.569V14.1202H151.929V24.7202C151.929 26.1869 151.969 27.2135 152.049 27.8002C152.129 28.3869 152.276 28.7735 152.489 28.9602C152.729 29.1202 153.156 29.2002 153.769 29.2002C155.022 29.2002 156.209 28.9869 157.329 28.5602L158.169 31.0802C157.422 31.6935 156.316 32.2269 154.849 32.6802C153.382 33.1335 151.902 33.3602 150.409 33.3602Z" fill="white"/>
<path d="M163.897 42.9602C163.337 42.9602 162.751 42.9202 162.137 42.8402C161.551 42.7602 161.124 42.6535 160.857 42.5202V37.7202C161.044 37.8535 161.444 37.9735 162.057 38.0802C162.671 38.2135 163.231 38.2802 163.737 38.2802C165.097 38.2802 166.177 37.8535 166.977 37.0002C167.777 36.1469 168.511 34.8135 169.177 33.0002H166.857L159.377 13.8002L157.617 13.3202V10.7602H169.417V13.3202L166.617 13.8002L169.937 24.4402L171.137 28.4802L172.097 24.4402L175.177 13.7602L172.777 13.3202V10.7602H181.817V13.3202L179.897 13.7602C178.777 17.2002 177.404 21.2402 175.777 25.8802C174.177 30.5202 173.284 33.0535 173.097 33.4802C172.297 35.6935 171.484 37.4669 170.657 38.8002C169.857 40.1602 168.911 41.1869 167.817 41.8802C166.724 42.6002 165.417 42.9602 163.897 42.9602Z" fill="white"/>
</mask>
<g mask="url(#mask0_1267_241)">
<ellipse cx="146" cy="21" rx="38" ry="40" fill="#FE8F1F"/>
</g>
</svg>
